<svg width="28" height="27" viewBox="0 0 28 27" fill="none" xmlns="http://www.w3.org/2000/svg">
<path d="M14.1936 26.9166C10.642 26.9166 7.23581 25.5058 4.7244 22.9945C2.21315 20.4831 0.802307 17.0769 0.802307 13.5253C0.802307 9.97373 2.21315 6.56754 4.7244 4.05613C7.23581 1.54487 10.642 0.134033 14.1936 0.134033C17.7452 0.134033 21.1514 1.54487 23.6628 4.05613C26.174 6.56754 27.5849 9.97373 27.5849 13.5253C27.5849 15.8759 26.9661 18.1851 25.7908 20.2209C24.6155 22.2566 22.9251 23.9471 20.8893 25.1224C18.8535 26.2977 16.5444 26.9164 14.1937 26.9164L14.1936 26.9166ZM14.1936 1.91982C11.1156 1.91982 8.16375 3.14257 5.98699 5.31903C3.81054 7.49548 2.58779 10.4474 2.58779 13.5256C2.58779 16.6038 3.81054 19.5555 5.98699 21.7322C8.16345 23.9087 11.1154 25.1314 14.1936 25.1314C17.2718 25.1314 20.2234 23.9087 22.4002 21.7322C24.5766 19.5558 25.7994 16.6038 25.7994 13.5256C25.7994 10.4474 24.5766 7.49579 22.4002 5.31903C20.2237 3.14257 17.2718 1.91982 14.1936 1.91982Z" fill="white"/>
<path d="M13.7738 12.8649C9.72132 12.7752 5.72275 11.918 1.98956 10.3384L2.71274 8.70474C2.85561 8.76731 17.1486 15.0167 24.3972 6.77637L25.7363 7.95489C22.4154 11.7401 17.9429 12.865 13.7736 12.865L13.7738 12.8649Z" fill="white"/>
<path d="M4.87333 21.6402L3.71277 20.2831C4.23944 19.8278 16.7825 9.29319 27.174 15.864L26.2187 17.3727C16.9434 11.5076 4.98929 21.5598 4.87349 21.6401L4.87333 21.6402Z" fill="white"/>
<path d="M14.4793 26.586L13.0955 25.4611C23.4065 12.8112 13.1489 2.09831 12.7026 1.65194L13.9791 0.4021C14.0953 0.527043 25.799 12.7128 14.4793 26.586L14.4793 26.586Z" fill="white"/>
</svg>
