<svg width="13" height="14" viewBox="0 0 13 14" fill="none" xmlns="http://www.w3.org/2000/svg">
<path d="M0.617352 1.15275C0.991921 0.778184 1.59902 0.778184 1.97339 1.15275L6.49361 5.67298L11.0138 1.15275C11.3884 0.778184 11.9955 0.778184 12.3699 1.15275C12.7444 1.52732 12.7444 2.13442 12.3699 2.50879L7.84965 7.02902L12.3699 11.5492C12.7444 11.9238 12.7444 12.5309 12.3699 12.9053C11.9953 13.2799 11.3882 13.2796 11.0138 12.9053L6.49361 8.38506L1.97339 12.9053C1.59882 13.2796 0.991721 13.2796 0.617352 12.9053C0.242784 12.5307 0.242784 11.9236 0.617352 11.5492L5.13757 7.02902L0.617352 2.50879C0.242784 2.13422 0.242784 1.52712 0.617352 1.15275Z" fill="black"/>
</svg>
