<svg width="20" height="15" viewBox="0 0 20 15" fill="none" xmlns="http://www.w3.org/2000/svg">
<path d="M18.9375 11.1569H16.7844C16.6076 10.5726 16.2475 10.0607 15.7573 9.69694C15.2671 9.33314 14.6729 9.13672 14.0625 9.13672C13.4521 9.13672 12.8579 9.33314 12.3677 9.69694C11.8775 10.0607 11.5174 10.5726 11.3406 11.1569H1.0625C0.847012 11.1569 0.640349 11.2425 0.487976 11.3948C0.335603 11.5472 0.25 11.7539 0.25 11.9694C0.25 12.1849 0.335603 12.3915 0.487976 12.5439C0.640349 12.6963 0.847012 12.7819 1.0625 12.7819H11.3406C11.5174 13.3661 11.8775 13.878 12.3677 14.2418C12.8579 14.6056 13.4521 14.802 14.0625 14.802C14.6729 14.802 15.2671 14.6056 15.7573 14.2418C16.2475 13.878 16.6076 13.3661 16.7844 12.7819H18.9375C19.153 12.7819 19.3597 12.6963 19.512 12.5439C19.6644 12.3915 19.75 12.1849 19.75 11.9694C19.75 11.7539 19.6644 11.5472 19.512 11.3948C19.3597 11.2425 19.153 11.1569 18.9375 11.1569ZM14.0625 13.1881C13.8215 13.1881 13.5858 13.1166 13.3854 12.9827C13.185 12.8488 13.0288 12.6585 12.9365 12.4358C12.8443 12.2131 12.8201 11.968 12.8672 11.7316C12.9142 11.4952 13.0303 11.278 13.2007 11.1076C13.3712 10.9371 13.5883 10.8211 13.8247 10.774C14.0611 10.727 14.3062 10.7512 14.5289 10.8434C14.7516 10.9356 14.9419 11.0919 15.0759 11.2923C15.2098 11.4927 15.2812 11.7283 15.2812 11.9694C15.2812 12.2926 15.1528 12.6026 14.9243 12.8312C14.6957 13.0597 14.3857 13.1881 14.0625 13.1881ZM1.0625 3.84437H4.84062C5.01741 4.42864 5.37751 4.94051 5.86768 5.30431C6.35785 5.66811 6.95208 5.86453 7.5625 5.86453C8.17292 5.86453 8.76715 5.66811 9.25732 5.30431C9.74749 4.94051 10.1076 4.42864 10.2844 3.84437H18.9375C19.153 3.84437 19.3597 3.75877 19.512 3.6064C19.6644 3.45402 19.75 3.24736 19.75 3.03187C19.75 2.81638 19.6644 2.60972 19.512 2.45735C19.3597 2.30498 19.153 2.21937 18.9375 2.21937H10.2844C10.1076 1.63511 9.74749 1.12324 9.25732 0.759439C8.76715 0.395639 8.17292 0.199219 7.5625 0.199219C6.95208 0.199219 6.35785 0.395639 5.86768 0.759439C5.37751 1.12324 5.01741 1.63511 4.84062 2.21937H1.0625C0.847012 2.21937 0.640349 2.30498 0.487976 2.45735C0.335603 2.60972 0.25 2.81638 0.25 3.03187C0.25 3.24736 0.335603 3.45402 0.487976 3.6064C0.640349 3.75877 0.847012 3.84437 1.0625 3.84437ZM7.5625 1.81312C7.80355 1.81312 8.03918 1.8846 8.2396 2.01852C8.44002 2.15244 8.59623 2.34278 8.68848 2.56548C8.78072 2.78817 8.80486 3.03323 8.75783 3.26964C8.71081 3.50605 8.59473 3.72321 8.42429 3.89366C8.25384 4.0641 8.03668 4.18018 7.80027 4.22721C7.56385 4.27423 7.3188 4.2501 7.0961 4.15785C6.87341 4.06561 6.68306 3.9094 6.54915 3.70897C6.41523 3.50855 6.34375 3.27292 6.34375 3.03187C6.34375 2.70864 6.47215 2.39865 6.70071 2.17009C6.92927 1.94153 7.23927 1.81312 7.5625 1.81312Z" fill="white"/>
</svg>
