<svg width="23" height="19" viewBox="0 0 23 19" fill="none" xmlns="http://www.w3.org/2000/svg">
<path d="M20.3244 4.98197C20.3382 5.17725 20.3382 5.37257 20.3382 5.56785C20.3382 11.5241 15.8484 18.3871 7.64249 18.3871C5.11439 18.3871 2.76591 17.6477 0.790405 16.3645C1.1496 16.4063 1.49493 16.4202 1.86795 16.4202C3.95393 16.4202 5.8742 15.7089 7.40763 14.4953C5.44595 14.4534 3.80199 13.1562 3.23558 11.3707C3.5119 11.4125 3.78817 11.4404 4.07831 11.4404C4.47892 11.4404 4.87958 11.3846 5.25255 11.287C3.20798 10.8685 1.67451 9.05511 1.67451 6.86511V6.80933C2.26852 7.14411 2.95931 7.35334 3.69143 7.38121C2.48955 6.57215 1.70215 5.1912 1.70215 3.62889C1.70215 2.79196 1.92314 2.02476 2.30998 1.3552C4.50652 4.08922 7.80824 5.87468 11.5105 6.07C11.4415 5.73522 11.4 5.38652 11.4 5.03779C11.4 2.55482 13.3893 0.532227 15.8622 0.532227C17.1469 0.532227 18.3073 1.07624 19.1224 1.95503C20.1309 1.75976 21.0979 1.38311 21.9544 0.867007C21.6228 1.91321 20.9183 2.79201 19.9928 3.34993C20.8907 3.25234 21.761 3.0012 22.5623 2.6525C21.9545 3.54521 21.1947 4.34028 20.3244 4.98197Z" fill="white"/>
</svg>
