<svg width="26" height="19" viewBox="0 0 26 19" fill="none" xmlns="http://www.w3.org/2000/svg">
<path d="M21.3686 0.717529H4.53477H4.53504C3.39275 0.717529 2.29743 1.17111 1.48992 1.97888C0.682139 2.78638 0.228577 3.8817 0.228577 5.02399V14.0281V14.0279C0.228577 15.1702 0.68216 16.2655 1.48992 17.073C2.29743 17.8808 3.39275 18.3343 4.53504 18.3343H21.3689H21.3686C22.5109 18.3343 23.6062 17.8807 24.4137 17.073C25.2215 16.2655 25.675 15.1702 25.675 14.0279V5.02372V5.02399C25.675 3.8817 25.2215 2.78638 24.4137 1.97888C23.6062 1.17109 22.5109 0.717529 21.3686 0.717529ZM17.9355 9.69789L10.3015 13.6127C10.2409 13.6439 10.1686 13.6417 10.1104 13.6065C10.0519 13.5715 10.0162 13.5084 10.0156 13.4404V5.61074C10.0162 5.54275 10.0519 5.47967 10.1104 5.44471C10.1685 5.40948 10.2409 5.4073 10.3015 5.43843L17.9355 9.35327C18.0007 9.38686 18.042 9.45404 18.042 9.5275C18.042 9.60096 18.0007 9.66813 17.9355 9.70172V9.69789Z" fill="white"/>
</svg>
