<svg width="86" height="84" viewBox="0 0 86 84" fill="none" xmlns="http://www.w3.org/2000/svg">
<path d="M79.79 49.28C78.74 49.28 77.71 49.57 76.82 50.12L71.77 53.2C71.49 52.36 71.02 51.58 70.38 50.93C69.33 49.85 67.91 49.2 66.4 49.12L64.39 49.01L58.65 43.27C57.83 42.45 56.68 42.09 55.57 42.3C54.78 42.45 54.09 42.87 53.6 43.48L41.92 38.95C40.93 38.57 39.86 38.68 38.97 39.25C38.08 39.82 37.54 40.75 37.48 41.8C37.43 42.67 37.53 43.81 38.07 45.08C36.36 44.73 34.61 44.58 32.85 44.64C29.34 44.77 25.63 45.19 21.82 45.9C15.86 47.01 12.78 47.22 11.4 47.23V45.73C11.4 45.12 10.91 44.63 10.3 44.63H1.6C0.99 44.63 0.5 45.12 0.5 45.73V69.73C0.5 70.34 0.99 70.83 1.6 70.83H10.29C10.9 70.83 11.39 70.34 11.39 69.73V68.4C14.07 69.15 19.52 70.86 23.16 73.13C26.46 75.2 33.3 79.11 38.45 82.03C39.89 82.84 41.47 83.25 43.06 83.25C44.8 83.25 46.53 82.76 48.06 81.8L82.83 59.8C84.3 58.87 85.26 57.34 85.45 55.61C85.64 53.88 85.05 52.18 83.81 50.95C82.75 49.88 81.32 49.28 79.79 49.28ZM9.19 68.64H2.71V46.85H9.19V68.64ZM55.1 45.29C55.12 45.23 55.15 45.18 55.17 45.12C55.37 44.66 55.76 44.52 55.97 44.48C56.37 44.4 56.78 44.53 57.08 44.84L61.08 48.84L54.09 48.46C54.38 47.26 54.71 46.22 55.1 45.29ZM40.16 41.12C40.45 40.93 40.8 40.9 41.12 41.02L52.66 45.49C52.36 46.35 52.09 47.29 51.86 48.32L47.73 48.09C47.4 48.07 47.07 48.01 46.75 47.9L41.18 45.96C40.1 44.67 39.6 43.31 39.68 41.93C39.7 41.6 39.87 41.31 40.16 41.12ZM81.66 57.95L46.89 79.95C44.66 81.36 41.84 81.43 39.55 80.13C35.35 77.75 27.78 73.43 24.34 71.28C20.18 68.68 14.12 66.86 11.4 66.13V49.46C12.98 49.45 16.18 49.21 22.22 48.09C25.93 47.4 29.53 46.99 32.93 46.87C35.39 46.78 37.81 47.15 40.14 47.95H40.15C40.16 47.95 40.18 47.96 40.19 47.96C40.19 47.96 40.19 47.96 40.2 47.96L46.03 50C46.54 50.18 47.07 50.28 47.61 50.31L66.29 51.33C68.25 51.44 69.82 53.05 69.87 55.01V55.02C69.87 55.04 69.87 55.05 69.87 55.07C69.89 57.09 68.33 58.77 66.31 58.9L62.28 59.15C62.27 59.15 62.25 59.15 62.24 59.15L44.76 60.24C44.21 60.27 43.77 60.71 43.73 61.26C43.69 61.81 44.06 62.31 44.59 62.42C48.53 63.28 51.05 67.12 51.07 67.15C51.28 67.48 51.64 67.66 52 67.66C52.2 67.66 52.39 67.61 52.57 67.5L62.66 61.34L66.43 61.1C69.43 60.91 71.8 58.55 72.04 55.61L77.97 52C78.52 51.66 79.15 51.49 79.79 51.49C80.73 51.49 81.6 51.85 82.27 52.52C83.03 53.28 83.39 54.32 83.27 55.38C83.15 56.44 82.57 57.37 81.66 57.95ZM57.96 61.63L52.3 65.09C51.69 64.32 50.65 63.18 49.24 62.18L57.96 61.63Z" fill="#1CB0F6"/>
<path d="M56.74 35.95C61.44 35.95 65.86 34.12 69.19 30.79C72.52 27.46 74.35 23.04 74.35 18.34C74.35 13.64 72.52 9.22001 69.19 5.89001C65.86 2.56001 61.44 0.730011 56.74 0.730011C52.04 0.730011 47.62 2.56001 44.29 5.89001C40.96 9.22001 39.13 13.64 39.13 18.34C39.13 23.04 40.96 27.46 44.29 30.79C47.62 34.12 52.04 35.95 56.74 35.95ZM56.74 2.94001C65.23 2.94001 72.14 9.85001 72.14 18.34C72.14 26.83 65.23 33.74 56.74 33.74C48.25 33.74 41.34 26.83 41.34 18.34C41.34 9.85001 48.25 2.94001 56.74 2.94001Z" fill="#1CB0F6"/>
<path d="M53.69 25.87C54.28 26.17 55.04 26.39 55.94 26.53V28.26C55.94 28.41 56.06 28.54 56.22 28.54H57.38C57.53 28.54 57.66 28.42 57.66 28.26V26.53C58.99 26.41 60.1 25.9 60.95 25C61.86 24.04 62.33 22.83 62.33 21.4C62.33 20.75 62.22 20.13 62 19.57C61.78 19 61.46 18.51 61.05 18.1C60.64 17.69 60.11 17.34 59.47 17.06C59.16 16.92 58.56 16.75 57.67 16.52V11.41C58.1 11.55 58.44 11.76 58.7 12.05C59.03 12.42 59.25 12.97 59.36 13.69C59.38 13.84 59.52 13.94 59.67 13.92L61.7 13.61C61.85 13.59 61.95 13.45 61.93 13.3C61.75 11.99 61.19 10.94 60.28 10.18C59.62 9.63001 58.74 9.28001 57.65 9.14001V8.45001C57.65 8.30001 57.53 8.17001 57.37 8.17001H56.21C56.06 8.17001 55.93 8.29001 55.93 8.45001V9.14001C54.69 9.30001 53.73 9.67001 53.07 10.25C52.02 11.17 51.49 12.38 51.49 13.86C51.49 14.69 51.67 15.45 52.03 16.1C52.39 16.76 52.92 17.29 53.59 17.66C54.38 18.1 55.17 18.41 55.93 18.58V24.3C55.36 24.17 54.87 23.83 54.43 23.28C54.08 22.82 53.82 22.08 53.68 21.08C53.67 21.01 53.63 20.94 53.57 20.9C53.51 20.86 53.43 20.84 53.36 20.85L51.38 21.22C51.24 21.25 51.15 21.37 51.16 21.51C51.24 22.57 51.51 23.49 51.98 24.23C52.46 24.98 53.03 25.53 53.69 25.87ZM57.65 19.01C58.45 19.3 59 19.62 59.28 19.96C59.59 20.34 59.75 20.86 59.75 21.51C59.75 22.29 59.53 22.92 59.07 23.44C58.68 23.88 58.22 24.16 57.66 24.29V19.01H57.65ZM54.52 15.2C54.18 14.8 54.02 14.3 54.02 13.69C54.02 13.08 54.21 12.56 54.61 12.11C54.95 11.73 55.39 11.48 55.94 11.34V16.07C55.29 15.85 54.81 15.55 54.52 15.2Z" fill="#1CB0F6"/>
</svg>
