<svg width="85" height="85" viewBox="0 0 85 85" fill="none" xmlns="http://www.w3.org/2000/svg">
<path d="M28.5938 82.8281V60.5781C28.5938 60.2082 28.4477 59.855 28.1863 59.595L15.4315 46.8401C15.4148 46.8235 15.3995 46.8082 15.3828 46.7915L10.5156 41.9243V25.1172C10.5156 22.4333 8.33234 20.25 5.64844 20.25C2.96453 20.25 0.78125 22.4333 0.78125 25.1172V55.7109C0.78125 56.0224 0.885547 56.3228 1.07606 56.5676L13.2969 72.1829V82.8281C13.2969 83.5971 13.9199 84.2188 14.6875 84.2188H27.2031C27.9707 84.2188 28.5938 83.5971 28.5938 82.8281ZM25.8125 81.4375H16.0781V71.7031C16.0781 71.3916 15.9738 71.0912 15.7833 70.8465L3.5625 55.2312V25.1172C3.5625 23.9671 4.49839 23.0312 5.64844 23.0312C6.79848 23.0312 7.73438 23.9671 7.73438 25.1172V42.5C7.73438 42.8699 7.88039 43.2231 8.14183 43.4832L10.1582 45.4996C7.95548 46.1518 6.34375 48.1946 6.34375 50.6046C6.34375 52.0272 6.89722 53.3636 7.90403 54.369L16.4856 62.9519L18.4519 60.9856L9.86898 52.4026C9.39617 51.9284 9.125 51.2748 9.125 50.6046C9.125 49.2028 10.2653 48.0625 11.6685 48.0625C12.3318 48.0625 12.9548 48.3142 13.4318 48.7731L25.8125 61.1538V81.4375Z" fill="#1CB0F6"/>
<path d="M79.3516 20.25C76.6677 20.25 74.4844 22.4333 74.4844 25.1172V41.9243L69.6172 46.7915C69.6005 46.8082 69.5838 46.8235 69.5671 46.8401L56.8137 59.595C56.5523 59.855 56.4062 60.2082 56.4062 60.5781V82.8281C56.4062 83.5971 57.0293 84.2188 57.7969 84.2188H70.3125C71.0801 84.2188 71.7031 83.5971 71.7031 82.8281V72.1829L83.9239 56.5676C84.1145 56.3228 84.2188 56.0224 84.2188 55.7109V25.1172C84.2188 22.4333 82.0355 20.25 79.3516 20.25ZM81.4375 55.2312L69.2167 70.8465C69.0262 71.0912 68.9219 71.3916 68.9219 71.7031V81.4375H59.1875V61.1538L71.5682 48.7731C72.0452 48.3142 72.6696 48.0625 73.3315 48.0625C74.7347 48.0625 75.875 49.2028 75.875 50.6046C75.875 51.2735 75.6038 51.9284 75.1296 52.4026L66.5481 60.9856L68.5144 62.9519L77.096 54.369C78.1028 53.3636 78.6562 52.0286 78.6562 50.6046C78.6562 48.1946 77.0445 46.1518 74.8418 45.4996L76.8582 43.4832C77.1196 43.2231 77.2656 42.8699 77.2656 42.5V25.1172C77.2656 23.9671 78.2015 23.0312 79.3516 23.0312C80.5016 23.0312 81.4375 23.9671 81.4375 25.1172V55.2312Z" fill="#1CB0F6"/>
<path d="M41.0537 56.3718L41.1983 53.5933C40.325 53.5488 39.4475 53.457 38.5922 53.3235L38.1584 56.07C39.1096 56.2188 40.0844 56.3203 41.0537 56.3718Z" fill="#1CB0F6"/>
<path d="M15.0324 32.9728C15.1854 33.9309 15.3884 34.8877 15.6388 35.818L18.3254 35.0977C18.1015 34.2605 17.918 33.3983 17.7803 32.5348L15.0324 32.9728Z" fill="#1CB0F6"/>
<path d="M20.2014 39.9799C19.8079 39.2081 19.4477 38.4029 19.1334 37.5866L16.5385 38.5893C16.8875 39.4932 17.2867 40.3874 17.7247 41.2454L20.2014 39.9799Z" fill="#1CB0F6"/>
<path d="M31.1473 50.9104C30.3699 50.5154 29.6078 50.0746 28.8805 49.6032L27.3634 51.9339C28.1727 52.4609 29.021 52.9504 29.8846 53.3912L31.1473 50.9104Z" fill="#1CB0F6"/>
<path d="M49.7063 55.4608C50.645 55.2091 51.5753 54.9087 52.4736 54.5625L51.478 51.9662C50.67 52.2763 49.8315 52.5474 48.986 52.7741L49.7063 55.4608Z" fill="#1CB0F6"/>
<path d="M55.1321 53.3804C55.9915 52.9423 56.8398 52.4514 57.6533 51.9216L56.1361 49.5923C55.4047 50.0693 54.6412 50.5087 53.8708 50.9009L55.1321 53.3804Z" fill="#1CB0F6"/>
<path d="M43.9633 56.3698C44.9242 56.3197 45.899 56.2182 46.8586 56.0652L46.4247 53.3188C45.5611 53.455 44.685 53.5454 43.8186 53.5899L43.9633 56.3698Z" fill="#1CB0F6"/>
<path d="M16.5168 18.6576L19.1145 19.6491C19.4246 18.8384 19.782 18.0332 20.1755 17.2544L17.696 15.9973C17.258 16.8609 16.8603 17.7565 16.5168 18.6576Z" fill="#1CB0F6"/>
<path d="M26.7625 48.0608C26.088 47.5143 25.433 46.926 24.8156 46.3086L22.8506 48.2749C23.5362 48.9605 24.2635 49.6155 25.0117 50.2218L26.7625 48.0608Z" fill="#1CB0F6"/>
<path d="M69.9848 32.8672L67.2355 32.4431C67.102 33.3039 66.9226 34.1661 66.7001 35.006L69.3896 35.718C69.6357 34.7849 69.836 33.8268 69.9848 32.8672Z" fill="#1CB0F6"/>
<path d="M19.1486 13.4764L21.4821 14.9894C21.9563 14.2593 22.4736 13.5459 23.0201 12.8728L20.8591 11.1206C20.2514 11.8716 19.6757 12.6628 19.1486 13.4764Z" fill="#1CB0F6"/>
<path d="M15.0229 24.2774L17.7708 24.7071C17.9057 23.8464 18.0879 22.9842 18.3104 22.1442L15.6223 21.4294C15.3748 22.3612 15.1731 23.3193 15.0229 24.2774Z" fill="#1CB0F6"/>
<path d="M23.0582 44.3619C22.5089 43.686 21.9888 42.974 21.5146 42.2467L19.1853 43.7681C19.7123 44.576 20.2895 45.3659 20.8999 46.1168L23.0582 44.3619Z" fill="#1CB0F6"/>
<path d="M14.6875 28.5939C14.6875 29.0875 14.7 29.584 14.7264 30.0791L17.5035 29.9303C17.4799 29.4867 17.4688 29.0389 17.4688 28.5939C17.4688 28.1656 17.4799 27.74 17.5007 27.3103L14.7237 27.1685C14.7 27.6441 14.6875 28.1197 14.6875 28.5939Z" fill="#1CB0F6"/>
<path d="M22.8337 8.92758L22.8045 8.95678L24.7986 10.8953C25.4063 10.289 26.0502 9.70772 26.7177 9.16259L24.9571 7.00851C24.2201 7.61066 23.5053 8.2559 22.8337 8.92758Z" fill="#1CB0F6"/>
<path d="M35.2532 1.73663C34.3159 1.98973 33.3856 2.29288 32.4872 2.63776L33.4871 5.23406C34.295 4.92116 35.1336 4.6486 35.9777 4.42193L35.2532 1.73663Z" fill="#1CB0F6"/>
<path d="M65.8756 43.6761L63.5393 42.1659C63.0707 42.8904 62.5547 43.6038 62.0041 44.288L64.1707 46.0319C64.7797 45.274 65.3541 44.4813 65.8756 43.6761Z" fill="#1CB0F6"/>
<path d="M62.183 48.2433L61.2416 47.2184L60.2 46.2937C59.5812 46.9125 58.9262 47.5035 58.2545 48.05L60.0067 50.2097C60.7521 49.602 61.4794 48.947 62.183 48.2433Z" fill="#1CB0F6"/>
<path d="M58.207 9.10305C58.8856 9.65235 59.542 10.2392 60.1553 10.8525L62.1202 8.88333C61.4374 8.20332 60.7087 7.54833 59.955 6.93924L58.207 9.10305Z" fill="#1CB0F6"/>
<path d="M68.501 38.4891L65.9006 37.5004C65.5905 38.3167 65.2359 39.1219 64.8437 39.8951L67.3246 41.1522C67.7612 40.2914 68.1562 39.3972 68.501 38.4891Z" fill="#1CB0F6"/>
<path d="M69.9606 24.1687C69.8062 23.2119 69.6018 22.2552 69.3515 21.3262L66.6662 22.0494C66.8915 22.8865 67.075 23.7487 67.2155 24.6123L69.9606 24.1687Z" fill="#1CB0F6"/>
<path d="M61.9171 12.7948C62.4706 13.4734 62.9907 14.184 63.4649 14.91L65.7928 13.3858C65.2658 12.582 64.6873 11.7922 64.0726 11.0385L61.9171 12.7948Z" fill="#1CB0F6"/>
<path d="M64.7826 17.1726C65.1803 17.9472 65.5391 18.751 65.8534 19.5617L68.4483 18.5591C68.1006 17.6579 67.6987 16.7638 67.2579 15.9016L64.7826 17.1726Z" fill="#1CB0F6"/>
<path d="M70.312 28.5922C70.312 28.0832 70.2981 27.5742 70.2703 27.0653L67.4932 27.2169C67.5183 27.6772 67.5308 28.1375 67.5308 28.5936C67.5308 29.008 67.521 29.4224 67.5002 29.8382L70.2773 29.9772C70.3009 29.5142 70.312 29.0539 70.312 28.5922Z" fill="#1CB0F6"/>
<path d="M49.645 1.7088L48.933 4.39827C49.7743 4.62077 50.6129 4.89055 51.425 5.20066L52.4165 2.60158C51.5126 2.2581 50.5809 1.95633 49.645 1.7088Z" fill="#1CB0F6"/>
<path d="M57.6003 5.23093C56.7896 4.70527 55.9413 4.21716 55.0763 3.77911L53.8192 6.2586C54.5966 6.65354 55.36 7.09297 56.0873 7.563L57.6003 5.23093Z" fill="#1CB0F6"/>
<path d="M40.9939 0.818604C40.0329 0.870057 39.0581 0.972963 38.1 1.12732L38.5366 3.87381C39.4002 3.73613 40.2763 3.64296 41.1413 3.59846L40.9939 0.818604Z" fill="#1CB0F6"/>
<path d="M31.0957 6.30471L29.8302 3.828C28.9722 4.26605 28.1239 4.75972 27.3104 5.29094L28.8318 7.61885C29.5632 7.14047 30.3253 6.69825 31.0957 6.30471Z" fill="#1CB0F6"/>
<path d="M33.54 51.973L32.5429 54.5706C33.4454 54.9169 34.3771 55.2187 35.313 55.469L36.0292 52.7795C35.1879 52.5556 34.3507 52.2845 33.54 51.973Z" fill="#1CB0F6"/>
<path d="M43.9034 0.814514L43.763 3.59298C44.6363 3.63609 45.5138 3.72648 46.369 3.85998L46.7987 1.11072C45.8475 0.964702 44.8741 0.864577 43.9034 0.814514Z" fill="#1CB0F6"/>
<path d="M57.7969 21.6406C57.7969 21.2179 57.605 20.8188 57.2754 20.5545L55.0156 18.7481V10.5156C55.0156 9.74661 54.3926 9.125 53.625 9.125H48.0625C47.2949 9.125 46.6719 9.74661 46.6719 10.5156V12.0717L43.3691 9.42955C42.8616 9.02487 42.1398 9.02487 41.6322 9.42955L27.726 20.5545C27.395 20.8188 27.2031 21.2179 27.2031 21.6406V39.7188C27.2031 43.5527 30.3223 46.6719 34.1562 46.6719H50.8438C54.6777 46.6719 57.7969 43.5527 57.7969 39.7188V21.6406ZM55.0156 39.7188C55.0156 42.0188 53.1438 43.8906 50.8438 43.8906H34.1562C31.8562 43.8906 29.9844 42.0188 29.9844 39.7188V22.3081L42.5 12.2956L47.1934 16.0517C47.6105 16.3855 48.1821 16.4494 48.6646 16.2186C49.1472 15.9877 49.4531 15.501 49.4531 14.9656V11.9062H52.2344V19.4156C52.2344 19.8384 52.4263 20.2375 52.7559 20.5017L55.0156 22.3081V39.7188Z" fill="#1CB0F6"/>
</svg>
