<svg width="84" height="78" viewBox="0 0 84 78" fill="none" xmlns="http://www.w3.org/2000/svg">
<path d="M42 31.2C40.5858 31.2 39.2035 31.6194 38.0276 32.405C36.8518 33.1907 35.9354 34.3073 35.3942 35.6138C34.8531 36.9203 34.7115 38.3579 34.9874 39.7449C35.2632 41.1319 35.9442 42.4059 36.9442 43.4058C37.9441 44.4058 39.2181 45.0867 40.6051 45.3626C41.992 45.6385 43.4297 45.4969 44.7362 44.9557C46.0427 44.4146 47.1593 43.4982 47.945 42.3223C48.7306 41.1465 49.15 39.7641 49.15 38.35C49.1465 36.4548 48.3921 34.6381 47.052 33.298C45.7119 31.9579 43.8952 31.2034 42 31.2ZM42 42.9C41.1001 42.9 40.2204 42.6332 39.4721 42.1332C38.7239 41.6332 38.1407 40.9226 37.7963 40.0912C37.4519 39.2598 37.3618 38.345 37.5374 37.4624C37.713 36.5797 38.1463 35.769 38.7826 35.1327C39.419 34.4963 40.2297 34.063 41.1123 33.8874C41.9949 33.7119 42.9098 33.802 43.7412 34.1464C44.5726 34.4907 45.2832 35.0739 45.7832 35.8222C46.2831 36.5704 46.55 37.4501 46.55 38.35C46.55 39.5567 46.0706 40.7141 45.2173 41.5673C44.364 42.4206 43.2067 42.9 42 42.9Z" fill="#1CB0F6"/>
<path d="M31.6 35.1H25.1V37.7H31.6V35.1Z" fill="#1CB0F6"/>
<path d="M31.6 39H25.1V41.6H31.6V39Z" fill="#1CB0F6"/>
<path d="M58.9 35.1H52.4V37.7H58.9V35.1Z" fill="#1CB0F6"/>
<path d="M58.9 39H52.4V41.6H58.9V39Z" fill="#1CB0F6"/>
<path d="M83.6 32.5001V7.80014H73.2V8.98314L52.036 0.520139C51.2876 0.220005 50.4807 0.0944502 49.6765 0.153019C48.8723 0.211588 48.092 0.452739 47.395 0.85814L28.584 8.56714C27.3871 9.04405 26.3956 9.92613 25.7826 11.0594C25.1696 12.1928 24.974 13.5054 25.23 14.7681C25.3998 15.538 25.7386 16.2606 26.222 16.8834C26.7055 17.5062 27.3213 18.0137 28.025 18.3691C28.7897 18.7604 29.6361 18.9653 30.495 18.9671C31.1789 18.973 31.8564 18.8358 32.484 18.5641L37.151 16.9911C37.1443 17.6849 37.3449 18.3648 37.7271 18.9438C38.1092 19.5228 38.6555 19.9745 39.296 20.2411L45.679 23.4001H14.7V46.5141L10.8 47.2681V45.5001H0.400024V70.2001H10.8V69.0171L31.964 77.4801C32.591 77.7377 33.2622 77.8702 33.94 77.8701C34.8768 77.8653 35.7959 77.6142 36.605 77.1421L55.416 69.4331C56.613 68.9562 57.6045 68.0741 58.2175 66.9408C58.8305 65.8075 59.026 64.4949 58.77 63.2321C58.5988 62.4722 58.2643 61.7587 57.7897 61.141C57.3151 60.5233 56.7118 60.0163 56.0216 59.6551C55.3315 59.294 54.571 59.0873 53.7929 59.0495C53.0149 59.0117 52.238 59.1436 51.516 59.4361L46.849 61.0091C46.8557 60.3154 46.6551 59.6355 46.273 59.0565C45.8908 58.4775 45.3445 58.0257 44.704 57.7591L35.695 53.3001H69.3V31.4861L73.2 30.7321V32.5001H83.6ZM75.8 10.4001H81V29.9001H75.8V10.4001ZM17.3 26.0001H50.931L53.531 27.3001H23.397L23.033 28.0411C22.263 29.6594 20.9593 30.9631 19.341 31.7331L18.6 32.0971V44.6031L19.341 44.9671C19.9957 45.2844 20.6001 45.6961 21.135 46.1891C19.9996 45.8134 18.7872 45.7329 17.612 45.9551H17.3V26.0001ZM59.121 30.0691C60.0284 31.5639 61.2925 32.8101 62.8 33.6961V43.0041C61.2243 43.9155 59.9154 45.2244 59.004 46.8001H24.996C24.0847 45.2244 22.7758 43.9155 21.2 43.0041V33.6961C22.7758 32.7848 24.0847 31.4759 24.996 29.9001H58.796L59.121 30.0691ZM8.20002 67.6001H3.00002V48.1001H8.20002V67.6001ZM44.171 60.6451C44.2685 60.8825 44.2685 61.1488 44.171 61.3861C43.833 62.2311 42.364 62.9201 40.271 63.1671C38.359 63.4267 36.4131 63.2534 34.577 62.6601L22.877 58.9941L22.11 61.4771L33.693 65.1041C35.2334 65.6455 36.8575 65.9096 38.49 65.8841C40.5741 65.9677 42.6452 65.5203 44.509 64.5841L52.309 61.9191C52.6844 61.7631 53.0893 61.6904 53.4955 61.7061C53.9018 61.7218 54.2998 61.8255 54.662 62.0101C55.057 62.1629 55.4108 62.4058 55.6952 62.7195C55.9796 63.0333 56.1867 63.4091 56.3 63.8171C56.4151 64.482 56.2967 65.1662 55.965 65.7537C55.6333 66.3413 55.1087 66.7961 54.48 67.0411L35.578 74.7631L35.37 74.8541C35.0098 75.0771 34.6025 75.2131 34.1806 75.2515C33.7587 75.2898 33.3336 75.2295 32.939 75.0751L10.8 66.2221V49.9201L18.106 48.5161C19.075 48.3263 20.0794 48.4587 20.966 48.8931L43.651 60.1381C43.8847 60.2315 44.0718 60.4139 44.171 60.6451ZM66.7 50.7001H30.456L27.856 49.4001H60.603L60.967 48.6591C61.737 47.0409 63.0408 45.7371 64.659 44.9671L65.4 44.6031V32.1361C65.7313 32.1322 66.0616 32.1018 66.388 32.0451H66.7V50.7001ZM65.894 29.4841C64.9251 29.6739 63.9207 29.5415 63.034 29.1071L40.349 17.8621C40.1153 17.7688 39.9283 17.5864 39.829 17.3551C39.7315 17.1178 39.7315 16.8515 39.829 16.6141C40.167 15.7691 41.636 15.0801 43.729 14.8331C45.641 14.5736 47.5869 14.7469 49.423 15.3401L61.123 19.0061L61.89 16.5231L50.307 12.8961C47.707 11.8431 42.507 11.7261 39.504 13.4681L31.6 16.1461C31.2246 16.3022 30.8198 16.3749 30.4135 16.3592C30.0073 16.3435 29.6093 16.2397 29.247 16.0551C28.881 15.8719 28.5612 15.6084 28.3113 15.2843C28.0614 14.9601 27.888 14.5837 27.804 14.1831C27.689 13.5183 27.8073 12.8341 28.139 12.2466C28.4707 11.659 28.9954 11.2042 29.624 10.9591L48.461 3.23714L48.669 3.14614C49.0293 2.92319 49.4365 2.78716 49.8584 2.7488C50.2804 2.71044 50.7055 2.77081 51.1 2.92514L73.2 11.7781V28.0801L65.894 29.4841Z" fill="#1CB0F6"/>
</svg>
